<?xml version="1.0"?>
<svg xmlns="http://www.w3.org/2000/svg" xmlnsXlink="http://www.w3.org/1999/xlink" xmlnsSvgjs="http://svgjs.com/svgjs" version="1.1" width="512" height="512" x="0" y="0" viewBox="0 0 24 24" xmlSpace="preserve"><g><path xmlns="http://www.w3.org/2000/svg" d="M14.414,0H5c-1.654,0-3,1.346-3,3V24H22V7.586L14.414,0Zm.586,3.414l3.586,3.586h-3.586V3.414Zm5,18.586H4V3c0-.551,.449-1,1-1H13v7h7v13Zm-14-2h12v-7H6v7Zm2-5h8v3H8v-3Zm3-4H6v-2h5v2Zm0-4H6v-2h5v2Z" fill="#ffffff" data-original="#000000"/></g></svg>
